<svg xmlns="http://www.w3.org/2000/svg" xmlns:xlink="http://www.w3.org/1999/xlink" width="1920" zoomAndPan="magnify" viewBox="0 0 1440 809.999993" height="1080" preserveAspectRatio="xMidYMid meet" version="1.0"><defs><clipPath id="3fc0161ed8"><path d="M 436.273438 119.507812 L 953.773438 119.507812 L 953.773438 652.757812 L 436.273438 652.757812 Z M 436.273438 119.507812 " clip-rule="nonzero"/></clipPath><clipPath id="aba5d2a049"><path d="M 562.253906 275 L 821 275 L 821 497 L 562.253906 497 Z M 562.253906 275 " clip-rule="nonzero"/></clipPath><clipPath id="5265a9d288"><path d="M 615 224.046875 L 876 224.046875 L 876 548.046875 L 615 548.046875 Z M 615 224.046875 " clip-rule="nonzero"/></clipPath></defs><g clip-path="url(#3fc0161ed8)"><path fill="#9d072b" d="M 501.265625 514.976562 C 501.984375 516.152344 502.984375 517.777344 503.804688 519.113281 C 504.621094 520.453125 505.304688 521.46875 505.25 521.492188 C 505.226562 521.503906 505.027344 521.261719 504.71875 520.859375 C 504.40625 520.453125 503.988281 519.890625 503.535156 519.238281 C 502.628906 517.945312 501.523438 516.375 500.722656 515.234375 L 498.777344 511.363281 C 499.613281 512.582031 500.4375 513.78125 501.265625 514.976562 Z M 591.113281 169.371094 C 595.308594 167.152344 599.597656 165.121094 603.914062 163.144531 C 606.085938 162.195312 608.253906 161.226562 610.449219 160.324219 C 612.652344 159.441406 614.835938 158.511719 617.066406 157.699219 C 614.878906 158.726562 612.742188 159.867188 610.59375 160.953125 C 609.515625 161.496094 608.46875 162.09375 607.40625 162.664062 C 606.351562 163.246094 605.289062 163.804688 604.242188 164.398438 C 600.0625 166.785156 595.925781 169.21875 591.917969 171.839844 C 598.027344 168.597656 603.554688 165.972656 608.550781 163.855469 C 609.171875 163.582031 609.785156 163.320312 610.386719 163.058594 C 610.996094 162.808594 611.59375 162.566406 612.183594 162.328125 C 613.363281 161.855469 614.503906 161.394531 615.609375 160.949219 C 617.832031 160.105469 619.917969 159.332031 621.871094 158.632812 C 629.710938 155.863281 635.515625 154.335938 639.953125 153.253906 C 644.394531 152.183594 647.503906 151.671875 650.082031 151.246094 C 652.675781 150.898438 654.738281 150.625 657.160156 150.363281 C 667.011719 149.246094 676.5625 148.785156 685.886719 148.878906 C 695.214844 148.992188 704.320312 149.671875 713.289062 150.828125 C 715.660156 151.140625 716.609375 151.601562 714.648438 151.539062 C 713.132812 151.492188 711.65625 151.449219 710.222656 151.402344 C 708.785156 151.398438 707.390625 151.386719 706.035156 151.378906 C 704.675781 151.359375 703.359375 151.382812 702.082031 151.417969 C 700.800781 151.445312 699.5625 151.46875 698.359375 151.492188 C 695.957031 151.613281 693.699219 151.691406 691.589844 151.832031 C 689.484375 151.996094 687.515625 152.117188 685.6875 152.292969 C 683.859375 152.480469 682.167969 152.65625 680.601562 152.820312 C 679.042969 153.023438 677.609375 153.210938 676.296875 153.386719 C 675.640625 153.476562 675.015625 153.554688 674.417969 153.644531 C 673.824219 153.746094 673.257812 153.835938 672.71875 153.925781 C 671.644531 154.109375 670.683594 154.269531 669.824219 154.414062 C 662.984375 155.730469 662.878906 156.042969 665.84375 155.816406 C 666.585938 155.761719 667.519531 155.675781 668.589844 155.566406 C 669.667969 155.476562 670.875 155.378906 672.160156 155.265625 C 674.734375 155.015625 677.644531 154.855469 680.417969 154.671875 C 681.804688 154.613281 683.160156 154.554688 684.429688 154.507812 C 685.695312 154.457031 686.875 154.417969 687.910156 154.425781 C 689.976562 154.421875 691.460938 154.445312 691.910156 154.53125 C 693.035156 154.742188 694.4375 154.984375 696.050781 155.195312 C 696.871094 155.300781 697.730469 155.410156 698.625 155.519531 C 699.539062 155.644531 700.492188 155.773438 701.46875 155.902344 C 702.460938 156.027344 703.484375 156.15625 704.53125 156.28125 C 705.589844 156.429688 706.671875 156.582031 707.769531 156.742188 C 709.972656 157.015625 712.257812 157.40625 714.558594 157.765625 C 715.707031 157.9375 716.863281 158.148438 718.011719 158.363281 C 719.160156 158.574219 720.304688 158.789062 721.445312 159 C 723.710938 159.464844 725.933594 159.933594 728.042969 160.425781 C 730.148438 160.953125 732.15625 161.425781 733.984375 161.964844 C 735.8125 162.503906 737.476562 163.003906 738.90625 163.507812 C 742.414062 164.785156 742.609375 165.519531 739.992188 165.808594 C 739.335938 165.882812 738.507812 165.902344 737.503906 165.953125 C 736.5 165.992188 735.332031 166.011719 734 166.011719 C 732.667969 165.992188 731.167969 166.019531 729.515625 166.019531 C 728.683594 166.011719 727.820312 166.003906 726.921875 165.996094 C 726.015625 166.007812 725.070312 166.019531 724.09375 166.03125 C 709.992188 163.621094 695.683594 162.511719 680.792969 162.886719 C 679.675781 162.929688 677.917969 163.046875 675.992188 163.1875 C 674.066406 163.371094 671.972656 163.578125 670.167969 163.753906 C 668.382812 164.289062 667.953125 164.585938 664.191406 165.449219 C 663.78125 165.550781 662.949219 165.730469 661.839844 165.953125 C 660.730469 166.1875 659.34375 166.445312 657.855469 166.796875 C 656.367188 167.144531 654.753906 167.472656 653.195312 167.859375 C 651.636719 168.253906 650.117188 168.636719 648.789062 168.96875 C 640.4375 170.34375 632.066406 172.238281 623.792969 174.609375 C 615.515625 176.972656 607.335938 179.828125 599.378906 183.15625 C 591.414062 186.472656 583.65625 190.222656 576.199219 194.332031 C 568.742188 198.453125 561.605469 202.949219 554.824219 207.691406 C 552.992188 208.984375 554.699219 207.214844 556.910156 205.085938 C 558.027344 204.035156 559.265625 202.886719 560.222656 201.964844 C 561.191406 201.054688 561.894531 200.386719 561.894531 200.234375 C 561.910156 199.542969 562.480469 198.417969 562.042969 198.070312 C 561.824219 197.898438 561.351562 197.917969 560.425781 198.289062 C 559.964844 198.472656 559.390625 198.746094 558.675781 199.125 C 557.972656 199.515625 557.140625 200.023438 556.140625 200.660156 C 555.585938 201.011719 554.785156 201.558594 553.777344 202.273438 C 552.785156 203.007812 551.59375 203.917969 550.222656 204.972656 C 549.878906 205.238281 549.527344 205.511719 549.164062 205.792969 C 548.804688 206.085938 548.441406 206.382812 548.066406 206.691406 C 547.3125 207.3125 546.519531 207.960938 545.695312 208.640625 C 544.863281 209.3125 544.027344 210.054688 543.15625 210.816406 C 542.28125 211.578125 541.378906 212.371094 540.453125 213.183594 C 536.808594 216.515625 532.804688 220.320312 528.847656 224.507812 C 524.894531 228.695312 520.925781 233.207031 517.230469 237.820312 C 515.707031 239.765625 514.296875 241.554688 513.042969 243.234375 C 511.808594 244.933594 510.652344 246.464844 509.652344 247.914062 C 508.65625 249.363281 507.753906 250.683594 506.929688 251.886719 C 506.140625 253.113281 505.429688 254.222656 504.78125 255.234375 C 504.464844 255.738281 504.160156 256.21875 503.871094 256.675781 C 503.597656 257.140625 503.335938 257.582031 503.089844 258 C 502.601562 258.839844 502.167969 259.589844 501.773438 260.273438 C 500.984375 261.628906 500.429688 262.730469 499.960938 263.667969 C 499.035156 265.546875 498.476562 266.773438 497.734375 268.417969 C 496.984375 270.054688 495.960938 272.054688 494.203125 275.53125 C 493.867188 276.191406 493.523438 276.828125 493.214844 277.46875 C 492.90625 278.109375 492.601562 278.738281 492.304688 279.351562 C 491.71875 280.582031 491.132812 281.753906 490.617188 282.898438 C 490.101562 284.042969 489.609375 285.136719 489.136719 286.183594 C 488.902344 286.710938 488.671875 287.222656 488.449219 287.722656 C 488.238281 288.230469 488.03125 288.726562 487.828125 289.207031 C 486.183594 293.0625 485.003906 296.246094 484.058594 298.800781 C 483.171875 301.378906 482.480469 303.320312 482.070312 304.785156 C 481.644531 306.246094 481.398438 307.203125 481.289062 307.773438 C 480.863281 310.050781 482.625 306.1875 483.851562 303.941406 C 486.117188 299.976562 486.761719 300.21875 489.292969 295.914062 C 489.910156 294.835938 490.691406 293.492188 491.648438 291.734375 C 492.617188 289.945312 493.78125 287.792969 495.214844 285.136719 C 498.167969 279.808594 502.222656 272.351562 508.859375 262.339844 L 508.617188 262.785156 C 514.347656 253.960938 519.371094 247.644531 522.996094 243.394531 C 524.832031 241.28125 526.296875 239.667969 527.394531 238.546875 C 528.503906 237.4375 529.21875 236.800781 529.542969 236.632812 C 529.863281 236.46875 529.792969 236.773438 529.324219 237.539062 C 528.863281 238.3125 527.980469 239.53125 526.78125 241.277344 C 526.164062 242.140625 525.460938 243.125 524.675781 244.226562 C 523.894531 245.347656 523.03125 246.589844 522.078125 247.953125 C 521.121094 249.3125 520.128906 250.839844 519.015625 252.460938 C 517.914062 254.089844 516.785156 255.886719 515.535156 257.785156 C 509.128906 267.941406 503.753906 278.113281 499.265625 288.484375 C 496.992188 293.652344 494.984375 298.894531 493.132812 304.191406 C 492.6875 305.523438 492.199219 306.835938 491.78125 308.175781 C 491.359375 309.515625 490.933594 310.855469 490.503906 312.195312 C 490.09375 313.539062 489.714844 314.898438 489.316406 316.25 C 488.910156 317.601562 488.546875 318.96875 488.191406 320.339844 C 488.558594 319.519531 488.882812 318.832031 489.199219 318.1875 C 489.523438 317.546875 489.839844 316.933594 490.171875 316.289062 C 490.847656 314.980469 491.53125 313.445312 492.648438 311.015625 C 493.203125 309.800781 493.792969 308.332031 494.597656 306.582031 C 494.984375 305.695312 495.40625 304.738281 495.867188 303.691406 C 496.316406 302.636719 496.859375 301.519531 497.410156 300.285156 C 499.664062 295.371094 502.710938 288.878906 507.421875 280.429688 C 510.925781 274.195312 513.96875 269.546875 516.539062 265.917969 C 517.820312 264.101562 519.019531 262.558594 520.070312 261.171875 C 521.152344 259.8125 522.136719 258.644531 523.023438 257.589844 C 523.902344 256.53125 524.765625 255.648438 525.542969 254.804688 C 526.332031 253.972656 527.042969 253.195312 527.785156 252.472656 C 528.519531 251.742188 529.242188 251.027344 529.980469 250.292969 C 530.351562 249.921875 530.726562 249.542969 531.109375 249.15625 C 531.507812 248.765625 531.914062 248.371094 532.332031 247.957031 C 532.765625 247.523438 532.496094 247.980469 531.777344 248.992188 C 531.0625 250.011719 529.949219 251.628906 528.632812 253.46875 C 526.074219 257.210938 522.875 261.984375 521.046875 265.167969 C 517.59375 270.246094 513.773438 276.507812 510.597656 282.332031 C 508.984375 285.226562 507.570312 288.03125 506.324219 290.457031 C 505.128906 292.910156 504.078125 294.976562 503.371094 296.488281 C 501.175781 300.878906 499.226562 305.375 497.371094 309.78125 C 496.496094 312.003906 495.570312 314.175781 494.789062 316.355469 C 494.382812 317.4375 493.984375 318.511719 493.585938 319.570312 C 493.214844 320.640625 492.847656 321.695312 492.484375 322.738281 C 489.59375 331.078125 487.496094 338.65625 486.019531 344.371094 C 485.527344 346.125 485.25 347.171875 485.007812 347.667969 C 484.777344 348.167969 484.628906 348.121094 484.542969 347.71875 C 484.453125 347.316406 484.421875 346.5625 484.417969 345.632812 C 484.429688 344.710938 484.492188 343.621094 484.546875 342.550781 C 484.609375 341.460938 484.714844 339.980469 484.953125 338.28125 C 485.183594 336.578125 485.414062 334.621094 485.785156 332.582031 C 485.960938 331.558594 486.140625 330.511719 486.324219 329.453125 C 486.503906 328.390625 486.738281 327.335938 486.941406 326.277344 C 487.152344 325.21875 487.363281 324.167969 487.566406 323.140625 C 487.792969 322.121094 488.015625 321.125 488.226562 320.164062 C 483.804688 335.753906 481.058594 352.324219 480.214844 368.761719 C 479.332031 385.203125 480.210938 401.476562 482.3125 416.570312 C 483.503906 425.167969 485.164062 433.96875 487.367188 442.582031 C 489.550781 451.199219 492.195312 459.648438 495.160156 467.597656 C 498.144531 475.542969 501.425781 482.988281 504.726562 489.667969 C 508.027344 496.351562 511.347656 502.269531 514.3125 507.242188 C 519.320312 515.492188 521.585938 519.039062 523.015625 521.695312 C 523.75 523.003906 524.300781 524.082031 524.996094 525.34375 C 525.703125 526.597656 526.585938 528.015625 527.953125 530.039062 C 530.613281 533.902344 535.71875 540.183594 535.945312 540.855469 C 536.042969 541.199219 534.820312 540.222656 531.542969 536.746094 C 531.132812 536.308594 530.675781 535.847656 530.207031 535.328125 C 529.738281 534.800781 529.234375 534.238281 528.695312 533.636719 C 528.15625 533.027344 527.582031 532.382812 526.96875 531.691406 C 526.359375 530.992188 525.734375 530.234375 525.0625 529.433594 C 522.347656 526.25 519.160156 522.191406 515.453125 517.078125 C 514.367188 515.542969 513.441406 514.332031 512.730469 513.347656 C 512.019531 512.367188 511.460938 511.652344 511.039062 511.164062 C 510.195312 510.1875 509.894531 510.121094 509.953125 510.640625 C 510.085938 511.671875 511.636719 515.089844 513.339844 518.171875 C 515 521.320312 518.886719 527.136719 517.726562 525.945312 C 517.429688 525.648438 516.808594 524.921875 515.800781 523.574219 C 515.296875 522.898438 514.683594 522.074219 513.949219 521.089844 C 513.210938 520.101562 512.410156 518.90625 511.457031 517.542969 C 507.710938 512.039062 501.976562 503.375 495.144531 489.4375 C 494.707031 488.535156 494.28125 487.660156 493.867188 486.804688 C 493.453125 485.953125 493.085938 485.105469 492.707031 484.292969 C 491.964844 482.65625 491.238281 481.117188 490.625 479.640625 C 489.996094 478.164062 489.375 476.789062 488.835938 475.476562 C 488.300781 474.160156 487.796875 472.925781 487.328125 471.773438 C 486.386719 469.460938 485.644531 467.429688 484.949219 465.691406 C 484.296875 463.941406 483.742188 462.460938 483.277344 461.207031 C 482.789062 459.964844 482.433594 458.9375 482.113281 458.117188 C 481.800781 457.292969 481.542969 456.664062 481.335938 456.195312 C 480.917969 455.25 480.6875 454.929688 480.554688 454.898438 C 477.78125 454.273438 475.488281 455.234375 473.457031 457.066406 C 473.453125 457.074219 473.472656 457.160156 473.519531 457.320312 C 473.570312 457.480469 473.636719 457.714844 473.726562 458.011719 C 473.910156 458.601562 474.171875 459.445312 474.484375 460.453125 C 475.089844 462.480469 476.03125 465.128906 476.941406 467.789062 C 477.410156 469.117188 477.914062 470.429688 478.367188 471.664062 C 478.820312 472.902344 479.25 474.054688 479.644531 475.027344 C 480.03125 476.007812 480.351562 476.824219 480.578125 477.394531 C 480.6875 477.679688 480.773438 477.902344 480.832031 478.054688 C 480.886719 478.210938 480.914062 478.292969 480.910156 478.292969 C 480.703125 478.3125 480.089844 477.34375 479.347656 476.054688 C 478.976562 475.410156 478.570312 474.691406 478.175781 473.964844 C 477.789062 473.246094 477.40625 472.527344 477.058594 471.878906 C 472.980469 461.28125 469.410156 449.023438 467.378906 439.589844 C 463.871094 423.25 462.359375 408.464844 462.085938 392.917969 C 461.785156 391.15625 461.582031 389.398438 461.335938 387.632812 C 461.222656 386.746094 461.105469 385.859375 460.988281 384.96875 C 460.894531 384.074219 460.796875 383.179688 460.703125 382.277344 C 460.613281 381.402344 460.523438 380.496094 460.410156 379.367188 C 460.296875 378.230469 460.222656 376.875 460.085938 375.113281 C 460.640625 367.394531 461.523438 360.007812 462.707031 352.75 C 463.890625 345.488281 465.394531 338.359375 467.273438 331.167969 C 469.148438 323.972656 471.382812 316.710938 474.113281 309.222656 C 476.84375 301.734375 480.066406 294.019531 483.992188 285.960938 C 482.769531 285.414062 481.847656 284.996094 480.925781 284.582031 C 483.691406 278.382812 486.707031 272.300781 489.964844 266.34375 C 493.261719 261.128906 496.441406 256.667969 499.953125 251.945312 C 503.464844 247.21875 507.378906 242.265625 512.445312 236.296875 C 518.429688 229.210938 525.375 221.902344 533.246094 214.519531 C 537.21875 210.863281 541.386719 207.15625 545.859375 203.527344 C 550.332031 199.90625 555.03125 196.289062 560.019531 192.78125 C 564 189.992188 570.285156 185.601562 577.488281 181.234375 C 584.675781 176.847656 592.765625 172.492188 599.925781 169.152344 C 597.390625 169.953125 594.816406 170.726562 592.292969 171.617188 Z M 685.433594 624.578125 C 694.5625 625.710938 705.035156 626.207031 712.785156 626.324219 C 714.226562 626.347656 715.578125 626.367188 716.851562 626.390625 C 718.113281 626.390625 719.296875 626.390625 720.390625 626.390625 C 722.546875 626.40625 724.375 626.414062 725.882812 626.425781 C 727.359375 626.445312 728.476562 626.5 729.234375 626.578125 C 729.992188 626.644531 730.386719 626.753906 730.417969 626.902344 C 730.449219 627.050781 730.113281 627.238281 729.40625 627.472656 C 728.699219 627.695312 727.621094 627.9375 726.164062 628.21875 C 724.710938 628.5 722.875 628.824219 720.65625 629.097656 C 719.539062 629.238281 718.332031 629.386719 717.039062 629.546875 C 715.730469 629.671875 714.328125 629.800781 712.839844 629.9375 C 703.640625 630.707031 694.316406 631 684.910156 630.714844 C 675.503906 630.425781 666.015625 629.605469 656.503906 628.214844 C 654.117188 627.898438 651.75 627.457031 649.363281 627.0625 C 646.976562 626.652344 644.605469 626.15625 642.214844 625.699219 C 639.847656 625.164062 637.453125 624.671875 635.078125 624.089844 C 632.707031 623.496094 630.316406 622.9375 627.949219 622.261719 C 618.457031 619.671875 608.976562 616.527344 599.640625 612.691406 C 597.320312 611.738281 592.285156 609.515625 586.542969 606.507812 C 580.785156 603.53125 574.320312 599.804688 568.890625 596.363281 C 568.070312 595.832031 566.707031 594.917969 565.132812 593.84375 C 564.34375 593.3125 563.511719 592.71875 562.675781 592.109375 C 561.839844 591.496094 560.988281 590.878906 560.164062 590.277344 C 558.515625 589.082031 557.035156 587.882812 555.960938 587.042969 C 554.886719 586.191406 554.25 585.660156 554.359375 585.683594 C 559.71875 587.066406 566.144531 589.15625 574.308594 591.859375 C 574.398438 591.886719 575.691406 592.675781 577.753906 593.9375 C 579.851562 595.148438 582.699219 596.867188 585.957031 598.632812 C 587.570312 599.542969 589.296875 600.441406 591.050781 601.355469 C 591.933594 601.808594 592.804688 602.289062 593.699219 602.722656 C 594.59375 603.164062 595.484375 603.601562 596.371094 604.042969 C 598.128906 604.929688 599.890625 605.734375 601.558594 606.503906 C 602.394531 606.882812 603.203125 607.257812 603.984375 607.621094 C 604.773438 607.957031 605.53125 608.289062 606.25 608.597656 C 603.890625 607.015625 601.605469 605.300781 599.316406 603.652344 C 598.191406 602.792969 597.070312 601.9375 595.945312 601.078125 C 595.390625 600.648438 594.828125 600.230469 594.28125 599.792969 L 592.644531 598.472656 C 590.730469 597.027344 582.601562 591.816406 588.378906 594.613281 C 590.089844 595.457031 591.617188 596.117188 592.9375 596.683594 C 594.257812 597.238281 595.363281 597.722656 596.3125 598.046875 C 598.199219 598.730469 599.335938 599.042969 599.863281 599.050781 C 600.921875 599.066406 599.546875 597.875 596.847656 596.027344 C 595.511719 595.082031 593.855469 593.941406 592.007812 592.710938 C 591.085938 592.070312 590.128906 591.402344 589.140625 590.71875 C 588.152344 590.03125 587.121094 589.34375 586.105469 588.59375 C 585.085938 587.855469 584.050781 587.105469 583.015625 586.359375 C 581.984375 585.613281 580.976562 584.824219 579.976562 584.066406 C 577.960938 582.5625 576.082031 581.003906 574.375 579.597656 C 579.320312 583.101562 584.070312 586.097656 588.5 588.816406 C 590.734375 590.144531 592.871094 591.4375 594.96875 592.59375 C 596.015625 593.179688 597.027344 593.777344 598.042969 594.320312 C 599.054688 594.859375 600.042969 595.394531 601.015625 595.914062 C 608.789062 600.050781 615.414062 603.085938 620.917969 605.484375 C 623.65625 606.71875 626.15625 607.691406 628.363281 608.644531 C 630.570312 609.539062 632.527344 610.332031 634.265625 611.035156 C 636 611.710938 637.488281 612.308594 638.765625 612.855469 C 640.042969 613.394531 641.125 613.816406 642.015625 614.226562 C 645.582031 615.855469 646.25 616.621094 646.011719 617.21875 C 645.777344 617.816406 644.648438 618.195312 644.734375 618.863281 C 658.132812 621.929688 671.765625 623.820312 685.433594 624.578125 Z M 559.648438 574.117188 C 561.648438 575.933594 563.464844 577.441406 564.988281 578.746094 C 565.746094 579.402344 566.445312 579.988281 567.082031 580.503906 C 567.710938 581.027344 568.265625 581.492188 568.757812 581.902344 C 570.683594 583.550781 571.421875 584.246094 570.714844 584.011719 C 570.359375 583.902344 569.664062 583.527344 568.59375 582.90625 C 568.050781 582.585938 567.425781 582.210938 566.699219 581.78125 C 565.972656 581.34375 565.148438 580.84375 564.246094 580.246094 C 562.429688 579.066406 560.210938 577.628906 557.648438 575.8125 C 557.007812 575.363281 556.335938 574.894531 555.640625 574.410156 C 554.957031 573.90625 554.25 573.386719 553.515625 572.847656 C 552.78125 572.308594 552.019531 571.75 551.234375 571.171875 C 550.460938 570.578125 549.660156 569.960938 548.835938 569.328125 C 546.070312 567.664062 543.378906 565.894531 540.667969 564.113281 C 535.996094 559.832031 531.523438 555.332031 527.203125 550.699219 C 534.628906 558.03125 542.574219 564.785156 550.824219 571.074219 C 553.519531 571.976562 556.316406 573.042969 559.648438 574.117188 Z M 499.246094 453.054688 C 498.859375 451.855469 498.460938 450.632812 498.058594 449.390625 C 497.6875 448.136719 497.3125 446.867188 496.933594 445.582031 C 496.535156 444.304688 496.203125 442.992188 495.851562 441.683594 C 495.507812 440.375 495.132812 439.0625 494.828125 437.734375 C 493.488281 432.460938 492.460938 427.128906 491.574219 422.253906 C 491.367188 421.03125 491.164062 419.839844 490.96875 418.683594 C 490.761719 417.523438 490.625 416.394531 490.453125 415.3125 C 490.296875 414.230469 490.121094 413.191406 489.984375 412.195312 C 489.851562 411.203125 489.726562 410.257812 489.605469 409.371094 C 489.480469 408.484375 489.363281 407.652344 489.25 406.882812 C 489.15625 406.117188 489.058594 405.410156 488.964844 404.777344 C 488.78125 403.507812 488.601562 402.523438 488.4375 401.875 C 488.109375 400.425781 487.558594 396.449219 487.195312 391.957031 C 487.078125 390.835938 487.011719 389.679688 486.941406 388.523438 C 486.867188 387.371094 486.789062 386.214844 486.714844 385.09375 C 486.617188 382.855469 486.519531 380.746094 486.441406 379.007812 C 486.335938 375.558594 486.160156 373.652344 485.839844 375.375 C 485.761719 375.804688 485.671875 376.460938 485.570312 377.378906 C 485.472656 378.292969 485.347656 379.46875 485.28125 380.9375 C 485.105469 383.875 484.917969 387.992188 485 393.53125 C 485.015625 394.679688 484.949219 394.507812 484.832031 393.488281 C 484.714844 392.472656 484.523438 390.613281 484.40625 388.390625 C 484.34375 387.277344 484.269531 386.078125 484.199219 384.851562 C 484.15625 383.617188 484.117188 382.359375 484.074219 381.132812 C 484.054688 380.519531 484.03125 379.914062 484.011719 379.320312 C 484.007812 378.734375 484 378.160156 483.996094 377.605469 C 483.980469 376.507812 483.96875 375.5 483.953125 374.640625 C 484.328125 370.011719 484.871094 364.039062 485.660156 358.910156 C 485.753906 358.269531 485.84375 357.640625 485.929688 357.027344 C 486.03125 356.417969 486.132812 355.824219 486.230469 355.25 C 486.425781 354.109375 486.613281 353.046875 486.777344 352.097656 C 487.132812 350.207031 487.464844 348.792969 487.652344 348.101562 C 488.925781 343.683594 490.15625 339.507812 492.613281 331.425781 C 493.882812 327.402344 495.410156 322.382812 497.761719 315.996094 C 498.328125 314.390625 499 312.722656 499.664062 310.9375 C 500.347656 309.15625 501.128906 307.304688 501.914062 305.332031 C 503.59375 301.425781 505.441406 297.09375 507.777344 292.410156 C 508.078125 291.789062 508.359375 291.195312 508.644531 290.644531 C 508.933594 290.09375 509.210938 289.574219 509.472656 289.078125 C 510 288.09375 510.480469 287.222656 510.910156 286.445312 C 511.8125 284.910156 512.546875 283.773438 513.136719 282.898438 C 513.726562 282.015625 514.207031 281.410156 514.609375 280.953125 C 515.011719 280.492188 515.328125 280.171875 515.617188 279.878906 C 516.300781 279.1875 516.984375 278.382812 517.777344 277.417969 C 518.574219 276.460938 519.445312 275.320312 520.433594 273.925781 C 521.453125 272.550781 522.597656 270.921875 523.941406 268.984375 C 524.628906 268.023438 525.359375 266.984375 526.144531 265.851562 C 526.921875 264.71875 527.8125 263.535156 528.730469 262.230469 C 532.472656 257.070312 537.359375 250.441406 544.476562 242.332031 C 551.597656 234.246094 560.921875 224.589844 573.996094 214.25 C 575.019531 213.433594 576.027344 212.628906 577.046875 211.875 C 578.058594 211.109375 579.058594 210.351562 580.050781 209.601562 C 582.074219 208.15625 584.039062 206.683594 586.101562 205.304688 C 588.128906 203.878906 590.238281 202.539062 592.40625 201.128906 C 593.496094 200.441406 594.625 199.769531 595.765625 199.070312 C 596.902344 198.359375 598.085938 197.683594 599.308594 196.992188 C 599.910156 196.648438 600.644531 196.230469 601.464844 195.769531 C 602.289062 195.316406 603.21875 194.84375 604.1875 194.328125 C 606.117188 193.289062 608.296875 192.25 610.320312 191.257812 C 612.359375 190.289062 614.28125 189.449219 615.714844 188.796875 C 617.167969 188.1875 618.136719 187.792969 618.28125 187.753906 C 619.070312 187.550781 620.085938 187.21875 621.257812 186.882812 C 622.433594 186.535156 623.738281 186.152344 625.074219 185.753906 C 626.414062 185.355469 627.808594 185 629.121094 184.636719 C 629.777344 184.464844 630.414062 184.285156 631.027344 184.136719 C 631.636719 183.996094 632.214844 183.863281 632.761719 183.738281 C 634.914062 183.257812 636.367188 183.007812 636.300781 183.277344 C 636.230469 183.535156 634.636719 184.289062 630.71875 185.859375 C 629.378906 186.425781 628.128906 186.957031 626.96875 187.449219 C 625.8125 187.953125 624.757812 188.457031 623.78125 188.902344 C 621.824219 189.785156 620.242188 190.617188 618.945312 191.285156 C 618.296875 191.621094 617.722656 191.917969 617.21875 192.195312 C 616.722656 192.480469 616.296875 192.730469 615.933594 192.953125 C 615.207031 193.398438 614.738281 193.714844 614.492188 193.929688 C 614.007812 194.355469 614.417969 194.355469 615.453125 194.066406 C 615.96875 193.917969 616.636719 193.703125 617.429688 193.421875 C 618.234375 193.148438 619.152344 192.835938 620.15625 192.496094 C 621.167969 192.152344 622.253906 191.734375 623.417969 191.359375 C 624.582031 190.972656 625.792969 190.5625 627.027344 190.152344 C 628.261719 189.746094 629.535156 189.371094 630.78125 188.976562 C 631.402344 188.785156 632.019531 188.582031 632.636719 188.40625 C 633.253906 188.234375 633.859375 188.066406 634.457031 187.898438 C 635.652344 187.574219 636.785156 187.234375 637.847656 186.976562 C 638.910156 186.722656 639.886719 186.492188 640.742188 186.304688 C 642.445312 185.90625 643.6875 185.742188 644.144531 185.78125 C 645.398438 185.375 646.558594 185 647.648438 184.648438 C 648.738281 184.316406 649.75 184.007812 650.695312 183.722656 C 652.574219 183.121094 654.207031 182.703125 655.628906 182.273438 C 657.050781 181.839844 658.289062 181.511719 659.414062 181.203125 C 660.535156 180.886719 661.546875 180.601562 662.535156 180.320312 C 664.878906 179.722656 667.113281 179.082031 669.351562 178.578125 C 670.472656 178.3125 671.582031 178.035156 672.695312 177.78125 C 673.816406 177.542969 674.9375 177.304688 676.070312 177.066406 C 683.617188 176.289062 690.730469 175.929688 698.921875 175.910156 C 704.84375 175.917969 712.199219 176.148438 718.871094 176.753906 C 719.363281 176.714844 719.851562 176.671875 720.335938 176.632812 C 720.820312 176.605469 721.304688 176.578125 721.792969 176.550781 C 722.78125 176.5 723.792969 176.453125 724.878906 176.398438 C 725.679688 176.355469 726.59375 176.367188 727.742188 176.375 C 728.886719 176.394531 730.269531 176.375 731.984375 176.425781 C 737.28125 177.296875 742.40625 178.402344 747.339844 179.578125 C 752.265625 180.777344 756.96875 182.140625 761.429688 183.542969 C 770.328125 186.417969 778.1875 189.617188 784.691406 192.691406 C 786.523438 193.550781 788.320312 194.460938 790.136719 195.328125 L 792.832031 196.703125 C 793.734375 197.15625 794.640625 197.605469 795.535156 198.089844 C 797.328125 199.042969 799.152344 199.972656 800.957031 200.992188 C 801.863281 201.492188 802.785156 201.976562 803.703125 202.492188 C 804.613281 203.011719 805.535156 203.535156 806.464844 204.0625 C 806.929688 204.328125 807.394531 204.589844 807.867188 204.855469 C 808.328125 205.132812 808.796875 205.40625 809.265625 205.6875 C 810.203125 206.238281 811.152344 206.792969 812.117188 207.359375 C 813.0625 207.9375 814.023438 208.527344 814.996094 209.125 C 815.484375 209.421875 815.972656 209.71875 816.46875 210.019531 C 816.953125 210.332031 817.445312 210.644531 817.9375 210.957031 C 821.910156 213.4375 826.003906 216.203125 830.320312 219.253906 C 840.867188 226.75 850.683594 234.691406 858.546875 243.3125 C 872.570312 258.605469 883.464844 275.65625 891.917969 293.691406 C 895.191406 300.679688 897.71875 307.078125 900.117188 314.097656 C 904.824219 327.882812 907.792969 341.101562 909.480469 351.429688 C 909.59375 352.074219 909.707031 352.703125 909.8125 353.324219 C 909.90625 353.949219 910 354.558594 910.089844 355.15625 C 910.277344 356.351562 910.453125 357.496094 910.625 358.585938 C 910.902344 360.773438 911.214844 362.734375 911.441406 364.453125 C 911.664062 366.167969 911.875 367.632812 912.078125 368.8125 C 912.257812 369.992188 912.417969 370.890625 912.582031 371.46875 C 912.828125 372.347656 913.085938 373.300781 913.339844 374.285156 C 913.570312 375.273438 913.800781 376.277344 914.03125 377.269531 C 914.253906 378.261719 914.511719 379.230469 914.714844 380.132812 C 914.914062 381.035156 915.121094 381.867188 915.324219 382.578125 C 916.136719 385.429688 916.917969 386.386719 917.613281 382.207031 C 918.761719 375.304688 919.578125 367.664062 919.777344 358.871094 C 919.789062 358.320312 919.800781 357.765625 919.816406 357.210938 C 919.816406 356.648438 919.808594 356.085938 919.808594 355.523438 C 919.804688 354.382812 919.792969 353.226562 919.789062 352.058594 C 919.761719 350.886719 919.707031 349.695312 919.664062 348.484375 C 919.621094 347.269531 919.578125 346.035156 919.480469 344.785156 C 919.394531 343.527344 919.304688 342.257812 919.21875 340.964844 C 919.089844 339.667969 918.960938 338.351562 918.828125 337.019531 C 918.707031 335.679688 918.53125 334.324219 918.34375 332.945312 C 918.152344 331.566406 918.003906 330.152344 917.757812 328.734375 C 916.914062 323.027344 915.671875 316.980469 914.039062 310.546875 C 912.390625 304.121094 910.300781 297.320312 907.621094 290.171875 C 904.9375 283.027344 901.667969 275.53125 897.644531 267.746094 C 893.582031 259.988281 888.800781 251.917969 883.050781 243.714844 C 879.902344 239.203125 876.695312 235.019531 873.566406 231.046875 C 871.957031 229.105469 870.429688 227.152344 868.839844 225.332031 C 868.050781 224.410156 867.277344 223.503906 866.507812 222.601562 C 865.722656 221.71875 864.941406 220.847656 864.171875 219.980469 C 858.007812 213.074219 852.015625 207.144531 846.390625 201.941406 C 840.761719 196.742188 835.496094 192.265625 830.648438 188.355469 C 825.789062 184.464844 821.375 181.097656 817.398438 178.152344 C 815.425781 176.707031 813.546875 175.335938 811.757812 174.023438 C 809.972656 172.769531 808.324219 171.546875 806.761719 170.429688 C 805.191406 169.328125 803.742188 168.269531 802.390625 167.277344 C 801.027344 166.3125 799.773438 165.390625 798.613281 164.511719 C 797.460938 163.621094 796.375 162.847656 795.394531 162.066406 C 794.40625 161.296875 793.515625 160.554688 792.691406 159.867188 C 791.039062 158.507812 789.710938 157.265625 788.617188 156.121094 C 787.820312 155.28125 787.566406 154.679688 787.820312 154.238281 C 788.070312 153.800781 788.832031 153.519531 790.011719 153.445312 C 791.195312 153.363281 792.808594 153.449219 794.796875 153.675781 C 796.777344 153.914062 799.109375 154.355469 801.746094 154.902344 C 806.992188 156.082031 813.386719 157.90625 820.289062 160.363281 C 827.191406 162.808594 834.589844 165.90625 841.878906 169.410156 C 843.554688 170.21875 845.34375 171.132812 846.914062 171.875 C 848.484375 172.621094 849.796875 173.273438 850.558594 173.503906 C 851.324219 173.742188 851.515625 173.589844 850.796875 172.816406 C 850.4375 172.429688 849.847656 171.890625 848.984375 171.160156 C 848.117188 170.445312 846.957031 169.566406 845.484375 168.472656 C 840.910156 165.164062 837.570312 162.742188 835.179688 161.011719 C 834.046875 160.160156 833.195312 159.496094 832.59375 158.992188 C 831.992188 158.488281 831.652344 158.125 831.542969 157.890625 C 831.097656 156.960938 834.359375 158.042969 839.261719 160.261719 C 839.867188 160.523438 841.007812 161.117188 842.367188 161.863281 C 843.730469 162.605469 845.347656 163.453125 846.847656 164.328125 C 848.355469 165.191406 849.792969 166.007812 850.855469 166.589844 C 851.921875 167.164062 852.59375 167.542969 852.613281 167.449219 C 852.632812 167.363281 852 166.808594 850.359375 165.671875 C 849.542969 165.105469 848.484375 164.375 847.140625 163.472656 C 845.796875 162.566406 844.132812 161.539062 842.160156 160.296875 C 841.179688 159.664062 840.089844 159.03125 838.917969 158.335938 C 837.746094 157.648438 836.496094 156.894531 835.132812 156.117188 C 833.761719 155.355469 832.296875 154.542969 830.738281 153.675781 C 829.175781 152.8125 827.480469 151.960938 825.699219 151.023438 C 818.53125 147.359375 809.539062 143.113281 798.136719 138.902344 C 796.839844 138.421875 794.75 137.59375 792.203125 136.6875 C 790.933594 136.226562 789.570312 135.699219 788.128906 135.203125 C 786.6875 134.710938 785.191406 134.195312 783.6875 133.675781 C 777.660156 131.65625 771.453125 129.8125 768.371094 128.949219 C 762.664062 127.253906 753.65625 125.058594 743.417969 123.398438 C 733.183594 121.707031 721.730469 120.554688 711.308594 120.121094 C 700.886719 119.691406 691.5 119.890625 685.347656 120.125 C 683.808594 120.148438 682.476562 120.226562 681.375 120.253906 C 680.273438 120.285156 679.410156 120.292969 678.8125 120.273438 C 677.621094 120.234375 677.507812 120.082031 678.75 119.789062 C 678.878906 119.757812 678.441406 119.773438 677.554688 119.824219 C 676.671875 119.875 675.347656 120.011719 673.710938 120.15625 C 672.070312 120.316406 670.113281 120.492188 667.976562 120.777344 C 665.839844 121.042969 663.507812 121.316406 661.128906 121.707031 C 659.9375 121.886719 658.730469 122.074219 657.527344 122.253906 C 656.320312 122.449219 655.121094 122.679688 653.933594 122.890625 C 652.75 123.101562 651.578125 123.316406 650.441406 123.523438 C 649.308594 123.761719 648.210938 123.988281 647.15625 124.210938 C 646.101562 124.429688 645.09375 124.640625 644.152344 124.839844 C 643.214844 125.0625 642.339844 125.269531 641.539062 125.460938 C 639.945312 125.839844 638.660156 126.15625 637.816406 126.375 C 626.789062 129.367188 617.695312 132.5 610.003906 135.417969 C 602.320312 138.355469 596.015625 141.046875 590.652344 143.523438 C 589.976562 143.832031 589.320312 144.125 588.671875 144.421875 C 588.027344 144.726562 587.398438 145.023438 586.78125 145.316406 C 585.546875 145.902344 584.359375 146.464844 583.207031 147.007812 C 580.933594 148.128906 578.816406 149.175781 576.808594 150.164062 C 574.820312 151.179688 572.945312 152.140625 571.125 153.070312 C 569.328125 154.03125 567.589844 154.953125 565.863281 155.871094 C 565.214844 156.210938 563.5 157.253906 561.171875 158.667969 C 560 159.367188 558.714844 160.210938 557.324219 161.105469 C 555.941406 162.003906 554.457031 162.949219 552.980469 163.980469 C 551.5 165.003906 549.96875 166.019531 548.5 167.082031 C 547.035156 168.144531 545.597656 169.191406 544.238281 170.179688 C 542.898438 171.183594 541.652344 172.152344 540.535156 173.011719 C 539.980469 173.441406 539.457031 173.847656 538.976562 174.21875 C 538.503906 174.605469 538.070312 174.957031 537.683594 175.273438 C 528.863281 182.492188 521 189.6875 512.386719 198.832031 C 508.09375 203.414062 503.578125 208.460938 498.835938 214.378906 C 494.089844 220.292969 489.054688 227.035156 483.78125 235.007812 C 484.6875 233.515625 485.535156 232.105469 486.34375 230.78125 C 487.160156 229.460938 487.957031 228.238281 488.695312 227.070312 C 490.164062 224.726562 491.558594 222.726562 492.785156 220.890625 C 493.398438 219.964844 494 219.105469 494.582031 218.289062 C 495.164062 217.472656 495.71875 216.695312 496.25 215.941406 C 497.304688 214.425781 498.335938 213.066406 499.328125 211.730469 C 484.730469 228.859375 472.394531 248.0625 462.675781 268.375 C 457.84375 278.546875 453.652344 288.988281 450.144531 299.597656 C 446.679688 310.214844 443.835938 320.976562 441.707031 331.785156 C 439.589844 342.597656 438.125 353.441406 437.28125 364.207031 C 436.464844 374.976562 436.28125 385.648438 436.640625 396.175781 C 437.335938 417.234375 440.429688 437.664062 445.175781 456.878906 C 445.273438 457.265625 445.433594 457.90625 445.660156 458.746094 C 445.90625 459.582031 446.210938 460.617188 446.558594 461.804688 C 446.921875 462.988281 447.296875 464.335938 447.765625 465.765625 C 448.234375 467.195312 448.734375 468.726562 449.253906 470.308594 C 451.398438 476.625 454.117188 483.675781 456.167969 488.40625 C 458.640625 494.128906 461.261719 499.839844 464.148438 505.386719 L 465.214844 507.476562 L 466.324219 509.535156 C 467.070312 510.90625 467.792969 512.285156 468.554688 513.636719 C 470.09375 516.335938 471.613281 519.027344 473.226562 521.640625 C 479.550781 532.164062 486.523438 541.855469 493.417969 550.445312 C 499.683594 558.183594 506.046875 565.183594 512.15625 571.367188 C 518.265625 577.550781 524.117188 582.917969 529.347656 587.484375 C 539.851562 596.5625 547.792969 602.46875 550.609375 605.230469 C 551.65625 606.234375 553.609375 607.863281 556.46875 609.878906 C 557.890625 610.898438 559.519531 612.039062 561.382812 613.238281 C 562.316406 613.835938 563.292969 614.464844 564.316406 615.125 C 565.347656 615.773438 566.441406 616.421875 567.574219 617.109375 C 572.105469 619.851562 577.488281 622.804688 583.613281 625.828125 C 589.734375 628.855469 596.636719 631.910156 604.210938 634.785156 C 605.558594 635.324219 606.929688 635.804688 608.296875 636.300781 C 609.667969 636.789062 611.03125 637.296875 612.410156 637.765625 C 615.179688 638.675781 617.933594 639.640625 620.734375 640.46875 C 626.300781 642.21875 631.960938 643.691406 637.617188 645.078125 C 639.039062 645.394531 640.457031 645.714844 641.875 646.035156 L 644.003906 646.507812 L 646.136719 646.9375 C 647.558594 647.21875 648.980469 647.5 650.398438 647.78125 C 651.824219 648.027344 653.25 648.273438 654.671875 648.519531 L 656.800781 648.886719 L 658.933594 649.207031 C 660.355469 649.414062 661.773438 649.621094 663.191406 649.832031 C 664.609375 650.023438 666.03125 650.179688 667.441406 650.359375 C 668.859375 650.523438 670.265625 650.710938 671.679688 650.835938 C 682.964844 651.972656 694.074219 652.410156 704.761719 652.171875 C 715.449219 651.917969 725.734375 651.039062 735.394531 649.675781 C 738.1875 649.316406 740.9375 648.828125 743.671875 648.386719 C 745.042969 648.171875 746.394531 647.886719 747.742188 647.636719 C 749.089844 647.375 750.4375 647.125 751.773438 646.855469 C 757.101562 645.714844 762.328125 644.511719 767.410156 643.101562 C 777.582031 640.328125 787.25 637.070312 796.359375 633.355469 C 814.585938 625.964844 830.632812 617.058594 844.574219 607.535156 C 858.519531 598.003906 870.371094 587.863281 880.445312 577.816406 C 885.492188 572.792969 890.050781 567.746094 894.242188 562.808594 C 898.441406 557.878906 902.203125 552.992188 905.628906 548.25 C 918.078125 531.078125 929.007812 511.320312 937.046875 490.746094 C 939.027344 485.589844 940.90625 480.417969 942.53125 475.199219 C 943.386719 472.609375 944.117188 469.988281 944.875 467.394531 C 945.261719 466.097656 945.582031 464.78125 945.925781 463.484375 C 946.261719 462.179688 946.632812 460.890625 946.929688 459.585938 C 949.46875 449.191406 951.316406 438.898438 952.4375 428.96875 C 952.5625 427.695312 952.703125 426.398438 952.835938 425.089844 C 952.902344 424.433594 952.976562 423.777344 953.042969 423.117188 C 953.09375 422.453125 953.148438 421.789062 953.199219 421.125 C 953.304688 419.792969 953.414062 418.457031 953.519531 417.125 C 953.589844 415.789062 953.667969 414.457031 953.738281 413.136719 C 953.90625 410.5 953.933594 407.898438 954 405.417969 C 954.054688 402.9375 954.007812 400.570312 953.992188 398.386719 C 953.941406 396.203125 953.832031 394.199219 953.742188 392.449219 C 953.660156 390.699219 953.476562 389.199219 953.34375 388.015625 C 953.050781 385.648438 952.746094 384.546875 952.421875 385.238281 C 950.980469 388.269531 949.601562 395.351562 947.570312 403.484375 C 947.050781 405.527344 946.519531 407.617188 945.980469 409.734375 C 945.386719 411.847656 944.792969 413.984375 944.203125 416.117188 C 943.546875 418.230469 942.933594 420.328125 942.261719 422.355469 C 941.566406 424.375 940.917969 426.34375 940.222656 428.195312 C 939.761719 429.402344 939.234375 430.976562 938.683594 432.644531 C 938.121094 434.308594 937.492188 436.058594 936.925781 437.632812 C 936.601562 438.550781 936.261719 439.394531 935.925781 440.195312 C 935.59375 440.984375 935.273438 441.75 934.953125 442.503906 C 934.335938 444.007812 933.664062 445.449219 932.949219 447.070312 C 932.230469 448.742188 931.457031 450.542969 930.542969 452.65625 C 929.65625 454.84375 928.535156 457.390625 927.242188 460.558594 C 925.625 464.324219 922.648438 471.90625 918.640625 480.230469 C 914.699219 488.582031 909.613281 497.59375 905.023438 504.75 C 904.945312 505.453125 904.976562 505.980469 904.929688 506.632812 C 904.871094 507.285156 904.730469 508.0625 904.3125 509.285156 C 904.097656 509.875 903.410156 511.304688 902.511719 512.921875 C 901.605469 514.535156 900.585938 516.390625 899.746094 517.84375 C 896.605469 522.363281 893.300781 526.691406 889.890625 530.972656 C 886.4375 535.226562 882.835938 539.390625 879.027344 543.527344 C 875.550781 547.269531 870.746094 552.117188 866.414062 556.140625 C 865.320312 557.140625 864.269531 558.097656 863.292969 558.992188 C 862.320312 559.886719 861.378906 560.679688 860.566406 561.402344 C 859.75 562.121094 859.035156 562.75 858.457031 563.257812 C 857.875 563.761719 857.425781 564.144531 857.144531 564.390625 C 853.484375 567.734375 848.90625 571.472656 845.617188 574.183594 C 842.269531 576.828125 840.246094 578.5 841.644531 577.621094 C 843.460938 576.476562 845.046875 575.519531 846.382812 574.707031 C 847.710938 573.875 848.8125 573.210938 849.707031 572.710938 C 851.503906 571.714844 852.417969 571.300781 852.65625 571.484375 C 853.128906 571.835938 850.785156 574.441406 846.441406 578.328125 C 842.105469 582.214844 835.707031 587.308594 828.074219 592.472656 C 820.449219 597.644531 811.621094 602.933594 802.667969 607.4375 C 786.675781 614.011719 771.394531 618.203125 757.71875 620.777344 C 750.878906 622.082031 744.421875 622.933594 738.445312 623.523438 C 736.949219 623.65625 735.488281 623.828125 734.050781 623.917969 C 732.621094 624.015625 731.214844 624.109375 729.839844 624.203125 C 728.46875 624.304688 727.125 624.324219 725.816406 624.386719 C 724.507812 624.429688 723.234375 624.503906 721.988281 624.511719 C 712.03125 624.691406 704.21875 624.167969 698.863281 623.554688 C 696.1875 623.242188 694.125 622.890625 692.707031 622.609375 C 691.285156 622.304688 690.511719 622 690.421875 621.777344 C 690.28125 621.511719 699.511719 621.542969 704.386719 621.199219 C 712.847656 621.410156 721.253906 621.1875 729.832031 620.484375 C 733.796875 620.148438 738.152344 619.679688 742.3125 619.09375 C 745.453125 618.425781 751.621094 616.996094 751.167969 616.882812 C 750.183594 616.628906 748.453125 616.546875 745.535156 616.664062 C 744.070312 616.699219 742.308594 616.785156 740.195312 616.933594 C 739.125 616.988281 737.976562 617.054688 736.742188 617.121094 C 735.496094 617.191406 734.160156 617.300781 732.714844 617.355469 C 731.265625 617.429688 729.71875 617.507812 728.066406 617.59375 C 726.40625 617.652344 724.636719 617.71875 722.753906 617.78125 C 720.867188 617.820312 718.863281 617.863281 716.738281 617.902344 C 714.609375 617.902344 712.359375 617.898438 709.976562 617.898438 C 700.449219 617.738281 688.804688 617.171875 674.796875 615.125 C 666.269531 614.925781 658.398438 614.304688 650.535156 613.304688 C 638.003906 609.617188 624.929688 604.429688 614.558594 599.214844 C 604.675781 594.28125 595.386719 588.558594 590.585938 584.898438 C 588.832031 583.542969 595.941406 587.191406 604.753906 591.335938 C 616.800781 596.957031 629.070312 601.488281 641.097656 604.910156 C 647.117188 606.613281 653.070312 608.042969 658.898438 609.257812 C 664.726562 610.453125 670.4375 611.363281 675.957031 612.125 C 677.339844 612.292969 678.710938 612.464844 680.070312 612.628906 C 681.425781 612.8125 682.773438 612.910156 684.105469 613.054688 C 686.769531 613.355469 689.390625 613.511719 691.941406 613.726562 C 693.21875 613.828125 694.484375 613.871094 695.734375 613.945312 C 696.984375 614.007812 698.210938 614.105469 699.433594 614.128906 C 701.867188 614.195312 704.234375 614.320312 706.535156 614.3125 C 715.734375 614.4375 723.796875 614.09375 730.414062 613.675781 C 731.316406 613.613281 732.238281 613.550781 733.191406 613.488281 C 734.144531 613.425781 735.125 613.3125 736.140625 613.222656 C 737.15625 613.125 738.203125 613.027344 739.292969 612.921875 C 740.375 612.789062 741.5 612.648438 742.664062 612.511719 C 747.324219 611.949219 752.640625 611.121094 758.875 609.894531 C 760.179688 609.367188 761.378906 608.902344 762.511719 608.421875 C 763.644531 607.9375 764.734375 607.460938 765.84375 606.984375 C 766.398438 606.742188 766.960938 606.507812 767.53125 606.25 C 768.101562 605.988281 768.6875 605.722656 769.292969 605.441406 C 770.503906 604.871094 771.816406 604.300781 773.265625 603.582031 C 774.808594 603.167969 776.21875 602.792969 777.519531 602.441406 C 778.816406 602.078125 779.992188 601.722656 781.085938 601.410156 C 783.277344 600.789062 785.085938 600.1875 786.734375 599.664062 C 788.390625 599.152344 789.855469 598.632812 791.328125 598.105469 C 792.066406 597.839844 792.808594 597.570312 793.574219 597.296875 C 794.339844 597.015625 795.117188 596.695312 795.953125 596.367188 C 796.945312 595.972656 797.972656 595.558594 799.039062 595.132812 C 800.09375 594.679688 801.183594 594.210938 802.292969 593.730469 C 804.53125 592.789062 806.816406 591.671875 809.171875 590.59375 C 813.828125 588.316406 818.625 585.851562 823.042969 583.328125 C 823.128906 583.160156 824.132812 582.5 825.746094 581.410156 C 826.5625 580.878906 827.535156 580.25 828.628906 579.535156 C 829.71875 578.804688 830.929688 577.988281 832.234375 577.113281 C 837.453125 573.589844 844.027344 568.816406 849.914062 563.976562 C 855.824219 559.164062 861.03125 554.296875 864.054688 551.242188 C 867.054688 548.160156 867.96875 546.996094 865.125 549.3125 C 863.15625 550.914062 862.441406 551.285156 861.761719 551.585938 C 861.089844 551.890625 860.476562 552.148438 858.714844 553.492188 C 857.84375 554.179688 856.632812 555.074219 855.003906 556.402344 C 854.59375 556.734375 854.15625 557.089844 853.6875 557.46875 C 853.210938 557.84375 852.703125 558.242188 852.164062 558.667969 C 851.074219 559.511719 849.882812 560.511719 848.480469 561.570312 C 847.785156 562.109375 847.046875 562.671875 846.269531 563.269531 C 845.878906 563.570312 845.480469 563.878906 845.070312 564.195312 C 844.652344 564.503906 844.226562 564.820312 843.785156 565.144531 C 842.90625 565.796875 841.984375 566.480469 841.011719 567.199219 C 840.039062 567.917969 838.988281 568.636719 837.902344 569.414062 C 833.542969 572.476562 828.273438 576.027344 821.769531 579.890625 C 816.945312 582.765625 812.167969 585.253906 807.671875 587.445312 C 806.539062 587.96875 805.425781 588.484375 804.328125 588.988281 C 803.785156 589.238281 803.242188 589.484375 802.707031 589.730469 C 802.167969 589.960938 801.632812 590.1875 801.105469 590.414062 C 800.046875 590.859375 799.015625 591.296875 798.007812 591.71875 C 796.996094 592.132812 796 592.507812 795.039062 592.882812 C 794.078125 593.25 793.152344 593.617188 792.242188 593.945312 C 791.335938 594.261719 790.457031 594.566406 789.609375 594.863281 C 788.765625 595.152344 787.953125 595.429688 787.175781 595.695312 C 786.390625 595.9375 785.644531 596.167969 784.933594 596.386719 C 782.101562 597.28125 779.839844 597.839844 778.324219 598.1875 C 772.984375 599.375 766.84375 600.683594 759.582031 601.914062 C 752.324219 603.140625 743.949219 604.285156 734.179688 605.039062 C 732.960938 605.148438 731.71875 605.21875 730.453125 605.289062 C 729.1875 605.359375 727.902344 605.449219 726.589844 605.507812 C 723.96875 605.59375 721.261719 605.730469 718.453125 605.734375 C 715.652344 605.808594 712.75 605.738281 709.753906 605.714844 C 708.257812 605.667969 706.734375 605.621094 705.1875 605.570312 C 703.644531 605.527344 702.074219 605.40625 700.480469 605.328125 C 687.734375 604.5625 673.414062 602.75 657.660156 598.8125 C 654.796875 598.089844 654.429688 597.820312 655.734375 597.90625 C 657.046875 597.980469 660.011719 598.492188 663.882812 599.101562 C 664.832031 599.265625 666.035156 599.476562 667.4375 599.675781 C 668.839844 599.875 670.421875 600.160156 672.140625 600.378906 C 673.863281 600.59375 675.703125 600.878906 677.609375 601.078125 C 678.5625 601.183594 679.53125 601.289062 680.507812 601.394531 C 680.992188 601.453125 681.480469 601.503906 681.96875 601.558594 L 683.441406 601.683594 C 691.28125 602.414062 699.027344 602.675781 702.320312 602.738281 C 704.621094 602.847656 706.910156 602.824219 709.191406 602.863281 C 710.332031 602.886719 711.46875 602.839844 712.601562 602.835938 C 713.738281 602.808594 714.871094 602.816406 716 602.777344 C 720.515625 602.613281 724.996094 602.398438 729.425781 601.976562 C 738.289062 601.1875 746.988281 599.902344 755.507812 598.074219 C 764.03125 596.246094 772.40625 593.980469 780.601562 591.179688 C 788.792969 588.371094 796.832031 585.097656 804.710938 581.339844 C 822.847656 572.605469 839.441406 561.644531 854.542969 548.515625 C 856.691406 545.660156 863.605469 537.609375 859.21875 541.011719 C 856.671875 542.964844 851.820312 547.140625 845.742188 551.789062 C 839.671875 556.445312 832.382812 561.574219 825.328125 565.824219 C 823.914062 566.667969 818.410156 570.28125 812.707031 573.5 C 807.023438 576.753906 801.191406 579.644531 799.851562 580.351562 C 792.824219 584.074219 786.675781 586.777344 781.238281 588.898438 C 775.792969 591.015625 771.0625 592.574219 766.722656 593.78125 C 765.636719 594.082031 764.582031 594.394531 763.542969 594.65625 C 762.503906 594.914062 761.484375 595.164062 760.476562 595.410156 C 758.476562 595.921875 756.511719 596.289062 754.578125 596.699219 C 753.613281 596.914062 752.644531 597.082031 751.671875 597.253906 C 750.707031 597.421875 749.734375 597.59375 748.757812 597.765625 C 746.796875 598.089844 744.800781 598.367188 742.734375 598.6875 C 736.910156 599.476562 730.914062 600.066406 724.78125 600.421875 C 723.246094 600.484375 721.707031 600.601562 720.15625 600.640625 C 718.605469 600.683594 717.046875 600.722656 715.480469 600.765625 C 713.910156 600.773438 712.335938 600.773438 710.757812 600.777344 C 709.175781 600.789062 707.585938 600.714844 705.992188 600.691406 C 693.238281 600.328125 680.109375 598.921875 667.011719 596.160156 C 665.03125 595.75 663.046875 595.289062 661.019531 594.855469 C 660.011719 594.609375 658.992188 594.367188 657.964844 594.117188 C 656.933594 593.871094 655.886719 593.636719 654.835938 593.347656 C 652.734375 592.800781 650.566406 592.261719 648.34375 591.609375 C 647.226562 591.285156 646.082031 591.003906 644.933594 590.636719 C 643.78125 590.285156 642.605469 589.929688 641.40625 589.566406 C 636.621094 588.050781 631.464844 586.304688 625.816406 584.109375 C 620.179688 581.890625 614.054688 579.234375 607.378906 575.890625 C 593.113281 568.71875 580.585938 560.507812 569.367188 551.640625 C 558.160156 542.753906 548.265625 533.175781 539.402344 522.898438 C 530.550781 512.613281 522.722656 501.617188 515.863281 489.671875 C 509.015625 477.730469 503.132812 464.832031 498.476562 450.664062 C 498.476562 450.664062 499.242188 453.042969 499.246094 453.054688 " fill-opacity="1" fill-rule="nonzero"/></g><path fill="#9d072b" d="M 895.683594 508.242188 C 899.816406 502.683594 903.792969 496.761719 907.414062 490.804688 C 911.042969 484.851562 914.308594 478.867188 917.148438 473.253906 C 917.628906 472.273438 917.277344 473.441406 916.660156 475.167969 C 916.011719 476.890625 915.152344 479.167969 914.652344 480.488281 C 913.886719 482.035156 913.054688 483.785156 912.160156 485.558594 C 911.238281 487.316406 910.335938 489.136719 909.425781 490.804688 C 908.5 492.46875 907.65625 494.03125 906.917969 495.308594 C 906.164062 496.582031 905.554688 497.589844 905.171875 498.191406 C 901.152344 504.375 897.09375 509.9375 892.917969 515.179688 C 888.734375 520.421875 884.433594 525.34375 879.839844 530.1875 C 885.546875 523.1875 890.828125 515.847656 895.683594 508.242188 " fill-opacity="1" fill-rule="nonzero"/><path fill="#9d072b" d="M 515.820312 291.179688 C 515.417969 292.476562 514.566406 294.699219 514.78125 294.808594 C 514.964844 294.90625 516.199219 292.90625 516.988281 291.839844 C 515.066406 295.453125 513.1875 299.523438 511.441406 303.371094 C 510.613281 305.320312 509.78125 307.195312 509.058594 308.960938 C 508.359375 310.738281 507.660156 312.355469 507.113281 313.796875 C 506.105469 316.351562 505.324219 318.339844 504.71875 319.875 C 504.121094 321.390625 503.640625 322.40625 503.34375 323.066406 C 503.085938 323.617188 503.097656 323.234375 503.183594 322.589844 C 503.28125 321.949219 503.476562 321.050781 503.53125 320.5625 C 503.980469 319.261719 504.386719 317.941406 504.867188 316.652344 L 506.28125 312.765625 C 507.285156 310.203125 508.261719 307.628906 509.359375 305.097656 C 511.515625 300.03125 513.816406 295.023438 516.378906 290.148438 L 515.820312 291.179688 " fill-opacity="1" fill-rule="nonzero"/><path fill="#9d072b" d="M 540.378906 521.425781 C 538.933594 520.027344 538.019531 519.046875 537.066406 518.101562 C 536.425781 517.21875 535.796875 516.289062 535.167969 515.355469 C 534.539062 514.425781 533.914062 513.496094 533.304688 512.59375 C 532.136719 510.75 531.015625 509.042969 530.1875 507.609375 C 530.128906 507.5 530.324219 507.761719 530.6875 508.257812 C 531.058594 508.746094 531.601562 509.457031 532.222656 510.269531 C 532.847656 511.078125 533.511719 512.007812 534.203125 512.859375 C 534.886719 513.71875 535.542969 514.542969 536.074219 515.203125 C 536.824219 516.375 537.628906 517.503906 538.367188 518.570312 C 539.109375 519.628906 539.777344 520.625 540.378906 521.425781 " fill-opacity="1" fill-rule="nonzero"/><path fill="#9d072b" d="M 516.378906 290.148438 C 515.777344 291.128906 514.914062 292.605469 514.21875 293.769531 C 513.550781 294.949219 513.03125 295.804688 513.050781 295.507812 C 513.078125 294.859375 515.1875 289.945312 516.539062 286.941406 C 517.1875 286.160156 518.496094 284.128906 518.300781 284.9375 C 518.097656 285.816406 516.441406 289.316406 515.675781 291.449219 C 515.820312 291.179688 516.378906 290.148438 516.378906 290.148438 " fill-opacity="1" fill-rule="nonzero"/><path fill="#9d072b" d="M 498.476562 450.664062 C 498.476562 450.664062 499.242188 453.042969 499.246094 453.054688 C 498.972656 452.027344 498.605469 450.640625 498.296875 449.476562 C 498.003906 448.3125 497.808594 447.371094 497.839844 447.257812 C 497.964844 446.90625 498.726562 448.855469 499.273438 449.800781 C 499.636719 450.925781 500.070312 452.289062 500.523438 453.699219 C 501.011719 455.101562 501.511719 456.554688 501.96875 457.871094 C 502.40625 459.1875 502.878906 460.34375 503.183594 461.1875 C 503.339844 461.609375 503.46875 461.949219 503.554688 462.1875 C 503.640625 462.421875 503.6875 462.5625 503.6875 462.5625 C 503.59375 462.914062 503.328125 462.820312 502.296875 460.671875 C 502.132812 460.332031 501.878906 459.761719 501.582031 459.03125 C 501.296875 458.296875 500.957031 457.417969 500.59375 456.476562 C 499.84375 454.589844 499.101562 452.410156 498.476562 450.664062 " fill-opacity="1" fill-rule="nonzero"/><path fill="#9d072b" d="M 478.457031 419.914062 C 478.042969 410.300781 478.066406 401.519531 478.640625 399.210938 C 478.699219 398.96875 478.808594 399.574219 478.957031 400.71875 C 479.027344 401.296875 479.113281 402 479.210938 402.800781 C 479.316406 403.601562 479.433594 404.5 479.558594 405.449219 C 479.683594 406.40625 479.800781 407.417969 479.945312 408.445312 C 480.101562 409.472656 480.261719 410.519531 480.414062 411.546875 C 480.703125 413.601562 481.074219 415.566406 481.371094 417.148438 C 481.6875 420.765625 482.445312 425.953125 483.117188 430.175781 C 483.472656 432.28125 483.8125 434.148438 484.011719 435.457031 C 484.214844 436.773438 484.34375 437.519531 484.226562 437.410156 C 483.746094 436.929688 482.910156 434.613281 481.832031 431.398438 C 481.304688 429.789062 480.773438 427.945312 480.179688 425.996094 C 479.625 424.046875 479.046875 421.988281 478.457031 419.914062 " fill-opacity="1" fill-rule="nonzero"/><path fill="#9d072b" d="M 477.035156 314.101562 C 476.464844 315.742188 475.914062 317.316406 475.410156 318.773438 C 474.890625 320.234375 474.496094 321.601562 474.109375 322.78125 C 473.726562 323.960938 473.402344 324.972656 473.148438 325.757812 C 472.90625 326.542969 472.726562 327.09375 472.609375 327.351562 C 472.46875 327.699219 472.691406 326.371094 473.09375 324.597656 C 473.503906 322.820312 474.019531 320.597656 474.367188 319.101562 C 474.859375 317.625 475.515625 315.652344 476.074219 313.984375 C 476.671875 312.332031 477.167969 310.988281 477.300781 310.777344 C 477.742188 310.082031 477.230469 312.328125 477.035156 314.101562 " fill-opacity="1" fill-rule="nonzero"/><path fill="#9d072b" d="M 508.617188 262.785156 C 508.738281 262.878906 509.019531 262.714844 508.945312 263.117188 C 508.816406 263.835938 508.472656 264.894531 508.222656 265.804688 C 507.433594 266.558594 506.238281 268.054688 506.054688 267.804688 C 506.007812 267.738281 506.414062 266.914062 506.957031 265.851562 C 507.503906 264.792969 508.230469 263.519531 508.75 262.53125 C 508.859375 262.339844 508.617188 262.785156 508.617188 262.785156 " fill-opacity="1" fill-rule="nonzero"/><path fill="#9d072b" d="M 624.738281 615.847656 C 632.214844 617.394531 639.726562 618.578125 647.230469 619.40625 C 639.722656 618.578125 632.214844 617.394531 624.738281 615.847656 " fill-opacity="1" fill-rule="nonzero"/><path fill="#9d072b" d="M 603.957031 607.523438 C 611.371094 610.875 618.957031 613.851562 626.671875 616.4375 C 625.316406 616.140625 624.214844 615.886719 622.566406 615.460938 C 620.128906 614.847656 617.351562 613.964844 614.710938 613.195312 C 613.476562 612.582031 612.199219 611.953125 610.953125 611.335938 C 610.332031 611.027344 609.71875 610.714844 609.125 610.421875 C 608.535156 610.105469 607.964844 609.800781 607.421875 609.507812 C 605.945312 608.707031 605.085938 608.179688 603.957031 607.523438 " fill-opacity="1" fill-rule="nonzero"/><g clip-path="url(#aba5d2a049)"><path fill="#a90147" d="M 785.613281 389.84375 C 783.601562 430.570312 748.464844 461.835938 707.691406 461.835938 L 667.320312 461.835938 L 667.320312 496.285156 L 707.183594 496.285156 C 766.890625 496.285156 817.8125 449.945312 820.066406 390.277344 C 822.4375 327.550781 772.101562 275.761719 709.890625 275.761719 L 562.335938 275.761719 L 562.335938 496.285156 C 581.359375 496.285156 596.78125 480.859375 596.78125 461.835938 L 596.78125 310.210938 L 709.890625 310.210938 C 752.960938 310.210938 787.761719 346.3125 785.613281 389.84375 " fill-opacity="1" fill-rule="nonzero"/></g><g clip-path="url(#5265a9d288)"><path fill="#35668f" d="M 709.585938 224.03125 L 615.65625 224.03125 C 615.65625 243.054688 631.074219 258.476562 650.097656 258.476562 L 709.898438 258.476562 C 778.964844 258.476562 837.871094 312.074219 840.484375 381.09375 C 843.234375 453.65625 784.992188 513.570312 713.03125 513.570312 L 650.097656 513.570312 L 650.097656 327.90625 L 615.65625 327.90625 L 615.65625 548.015625 L 713.03125 548.015625 C 803.984375 548.015625 877.667969 472.664062 874.949219 381.117188 C 872.332031 293.007812 797.730469 224.03125 709.585938 224.03125 " fill-opacity="1" fill-rule="nonzero"/></g></svg>